<svg width="100%" height="100%" viewBox="0 0 400 410" xmlns="http://www.w3.org/2000/svg" preserveAspectRatio="none">
  <defs>
    <linearGradient id="waveGradient" x1="0" y1="0" x2="0" y2="1">
      <stop offset="0%" stop-color="#d7d7d7" stop-opacity="0.1" />
      <stop offset="100%" stop-color="#b0b0b0" stop-opacity="0.4" />
    </linearGradient>
  </defs>
  <rect width="100%" height="100%" fill="#fff8f0" />
  <g stroke="url(#waveGradient)" stroke-width="1" fill="none">
<path d="M0 10 Q10 30 20 10 Q30 30 40 10 Q50 30 60 10 Q70 30 80 10 Q90 30 100 10 Q110 30 120 10 Q130 30 140 10 Q150 30 160 10 Q170 30 180 10 Q190 30 200 10 Q210 30 220 10 Q230 30 240 10 Q250 30 260 10 Q270 30 280 10 Q290 30 300 10 Q310 30 320 10 Q330 30 340 10 Q350 30 360 10 Q370 30 380 10 Q390 30 400 10" />
<path d="M0 18 Q10 38 20 18 Q30 38 40 18 Q50 38 60 18 Q70 38 80 18 Q90 38 100 18 Q110 38 120 18 Q130 38 140 18 Q150 38 160 18 Q170 38 180 18 Q190 38 200 18 Q210 38 220 18 Q230 38 240 18 Q250 38 260 18 Q270 38 280 18 Q290 38 300 18 Q310 38 320 18 Q330 38 340 18 Q350 38 360 18 Q370 38 380 18 Q390 38 400 18" />
<path d="M0 26 Q10 46 20 26 Q30 46 40 26 Q50 46 60 26 Q70 46 80 26 Q90 46 100 26 Q110 46 120 26 Q130 46 140 26 Q150 46 160 26 Q170 46 180 26 Q190 46 200 26 Q210 46 220 26 Q230 46 240 26 Q250 46 260 26 Q270 46 280 26 Q290 46 300 26 Q310 46 320 26 Q330 46 340 26 Q350 46 360 26 Q370 46 380 26 Q390 46 400 26" />
<path d="M0 26 Q10 46 20 26 Q30 46 40 26 Q50 46 60 26 Q70 46 80 26 Q90 46 100 26 Q110 46 120 26 Q130 46 140 26 Q150 46 160 26 Q170 46 180 26 Q190 46 200 26 Q210 46 220 26 Q230 46 240 26 Q250 46 260 26 Q270 46 280 26 Q290 46 300 26 Q310 46 320 26 Q330 46 340 26 Q350 46 360 26 Q370 46 380 26 Q390 46 400 26" />
<path d="M0 26 Q10 46 20 26 Q30 46 40 26 Q50 46 60 26 Q70 46 80 26 Q90 46 100 26 Q110 46 120 26 Q130 46 140 26 Q150 46 160 26 Q170 46 180 26 Q190 46 200 26 Q210 46 220 26 Q230 46 240 26 Q250 46 260 26 Q270 46 280 26 Q290 46 300 26 Q310 46 320 26 Q330 46 340 26 Q350 46 360 26 Q370 46 380 26 Q390 46 400 26" />
<path d="M0 26 Q10 46 20 26 Q30 46 40 26 Q50 46 60 26 Q70 46 80 26 Q90 46 100 26 Q110 46 120 26 Q130 46 140 26 Q150 46 160 26 Q170 46 180 26 Q190 46 200 26 Q210 46 220 26 Q230 46 240 26 Q250 46 260 26 Q270 46 280 26 Q290 46 300 26 Q310 46 320 26 Q330 46 340 26 Q350 46 360 26 Q370 46 380 26 Q390 46 400 26" />
<path d="M0 26 Q10 46 20 26 Q30 46 40 26 Q50 46 60 26 Q70 46 80 26 Q90 46 100 26 Q110 46 120 26 Q130 46 140 26 Q150 46 160 26 Q170 46 180 26 Q190 46 200 26 Q210 46 220 26 Q230 46 240 26 Q250 46 260 26 Q270 46 280 26 Q290 46 300 26 Q310 46 320 26 Q330 46 340 26 Q350 46 360 26 Q370 46 380 26 Q390 46 400 26" />
<path d="M0 26 Q10 46 20 26 Q30 46 40 26 Q50 46 60 26 Q70 46 80 26 Q90 46 100 26 Q110 46 120 26 Q130 46 140 26 Q150 46 160 26 Q170 46 180 26 Q190 46 200 26 Q210 46 220 26 Q230 46 240 26 Q250 46 260 26 Q270 46 280 26 Q290 46 300 26 Q310 46 320 26 Q330 46 340 26 Q350 46 360 26 Q370 46 380 26 Q390 46 400 26" />
<path d="M0 26 Q10 46 20 26 Q30 46 40 26 Q50 46 60 26 Q70 46 80 26 Q90 46 100 26 Q110 46 120 26 Q130 46 140 26 Q150 46 160 26 Q170 46 180 26 Q190 46 200 26 Q210 46 220 26 Q230 46 240 26 Q250 46 260 26 Q270 46 280 26 Q290 46 300 26 Q310 46 320 26 Q330 46 340 26 Q350 46 360 26 Q370 46 380 26 Q390 46 400 26" />
<path d="M0 26 Q10 46 20 26 Q30 46 40 26 Q50 46 60 26 Q70 46 80 26 Q90 46 100 26 Q110 46 120 26 Q130 46 140 26 Q150 46 160 26 Q170 46 180 26 Q190 46 200 26 Q210 46 220 26 Q230 46 240 26 Q250 46 260 26 Q270 46 280 26 Q290 46 300 26 Q310 46 320 26 Q330 46 340 26 Q350 46 360 26 Q370 46 380 26 Q390 46 400 26" />
<path d="M0 26 Q10 46 20 26 Q30 46 40 26 Q50 46 60 26 Q70 46 80 26 Q90 46 100 26 Q110 46 120 26 Q130 46 140 26 Q150 46 160 26 Q170 46 180 26 Q190 46 200 26 Q210 46 220 26 Q230 46 240 26 Q250 46 260 26 Q270 46 280 26 Q290 46 300 26 Q310 46 320 26 Q330 46 340 26 Q350 46 360 26 Q370 46 380 26 Q390 46 400 26" />
<path d="M0 26 Q10 46 20 26 Q30 46 40 26 Q50 46 60 26 Q70 46 80 26 Q90 46 100 26 Q110 46 120 26 Q130 46 140 26 Q150 46 160 26 Q170 46 180 26 Q190 46 200 26 Q210 46 220 26 Q230 46 240 26 Q250 46 260 26 Q270 46 280 26 Q290 46 300 26 Q310 46 320 26 Q330 46 340 26 Q350 46 360 26 Q370 46 380 26 Q390 46 400 26" />
<path d="M0 26 Q10 46 20 26 Q30 46 40 26 Q50 46 60 26 Q70 46 80 26 Q90 46 100 26 Q110 46 120 26 Q130 46 140 26 Q150 46 160 26 Q170 46 180 26 Q190 46 200 26 Q210 46 220 26 Q230 46 240 26 Q250 46 260 26 Q270 46 280 26 Q290 46 300 26 Q310 46 320 26 Q330 46 340 26 Q350 46 360 26 Q370 46 380 26 Q390 46 400 26" />
<path d="M0 26 Q10 46 20 26 Q30 46 40 26 Q50 46 60 26 Q70 46 80 26 Q90 46 100 26 Q110 46 120 26 Q130 46 140 26 Q150 46 160 26 Q170 46 180 26 Q190 46 200 26 Q210 46 220 26 Q230 46 240 26 Q250 46 260 26 Q270 46 280 26 Q290 46 300 26 Q310 46 320 26 Q330 46 340 26 Q350 46 360 26 Q370 46 380 26 Q390 46 400 26" />
<path d="M0 26 Q10 46 20 26 Q30 46 40 26 Q50 46 60 26 Q70 46 80 26 Q90 46 100 26 Q110 46 120 26 Q130 46 140 26 Q150 46 160 26 Q170 46 180 26 Q190 46 200 26 Q210 46 220 26 Q230 46 240 26 Q250 46 260 26 Q270 46 280 26 Q290 46 300 26 Q310 46 320 26 Q330 46 340 26 Q350 46 360 26 Q370 46 380 26 Q390 46 400 26" />
<path d="M0 26 Q10 46 20 26 Q30 46 40 26 Q50 46 60 26 Q70 46 80 26 Q90 46 100 26 Q110 46 120 26 Q130 46 140 26 Q150 46 160 26 Q170 46 180 26 Q190 46 200 26 Q210 46 220 26 Q230 46 240 26 Q250 46 260 26 Q270 46 280 26 Q290 46 300 26 Q310 46 320 26 Q330 46 340 26 Q350 46 360 26 Q370 46 380 26 Q390 46 400 26" />
<path d="M0 26 Q10 46 20 26 Q30 46 40 26 Q50 46 60 26 Q70 46 80 26 Q90 46 100 26 Q110 46 120 26 Q130 46 140 26 Q150 46 160 26 Q170 46 180 26 Q190 46 200 26 Q210 46 220 26 Q230 46 240 26 Q250 46 260 26 Q270 46 280 26 Q290 46 300 26 Q310 46 320 26 Q330 46 340 26 Q350 46 360 26 Q370 46 380 26 Q390 46 400 26" />
<path d="M0 26 Q10 46 20 26 Q30 46 40 26 Q50 46 60 26 Q70 46 80 26 Q90 46 100 26 Q110 46 120 26 Q130 46 140 26 Q150 46 160 26 Q170 46 180 26 Q190 46 200 26 Q210 46 220 26 Q230 46 240 26 Q250 46 260 26 Q270 46 280 26 Q290 46 300 26 Q310 46 320 26 Q330 46 340 26 Q350 46 360 26 Q370 46 380 26 Q390 46 400 26" />
<path d="M0 26 Q10 46 20 26 Q30 46 40 26 Q50 46 60 26 Q70 46 80 26 Q90 46 100 26 Q110 46 120 26 Q130 46 140 26 Q150 46 160 26 Q170 46 180 26 Q190 46 200 26 Q210 46 220 26 Q230 46 240 26 Q250 46 260 26 Q270 46 280 26 Q290 46 300 26 Q310 46 320 26 Q330 46 340 26 Q350 46 360 26 Q370 46 380 26 Q390 46 400 26" />
<path d="M0 26 Q10 46 20 26 Q30 46 40 26 Q50 46 60 26 Q70 46 80 26 Q90 46 100 26 Q110 46 120 26 Q130 46 140 26 Q150 46 160 26 Q170 46 180 26 Q190 46 200 26 Q210 46 220 26 Q230 46 240 26 Q250 46 260 26 Q270 46 280 26 Q290 46 300 26 Q310 46 320 26 Q330 46 340 26 Q350 46 360 26 Q370 46 380 26 Q390 46 400 26" />
<path d="M0 26 Q10 46 20 26 Q30 46 40 26 Q50 46 60 26 Q70 46 80 26 Q90 46 100 26 Q110 46 120 26 Q130 46 140 26 Q150 46 160 26 Q170 46 180 26 Q190 46 200 26 Q210 46 220 26 Q230 46 240 26 Q250 46 260 26 Q270 46 280 26 Q290 46 300 26 Q310 46 320 26 Q330 46 340 26 Q350 46 360 26 Q370 46 380 26 Q390 46 400 26" />
<path d="M0 26 Q10 46 20 26 Q30 46 40 26 Q50 46 60 26 Q70 46 80 26 Q90 46 100 26 Q110 46 120 26 Q130 46 140 26 Q150 46 160 26 Q170 46 180 26 Q190 46 200 26 Q210 46 220 26 Q230 46 240 26 Q250 46 260 26 Q270 46 280 26 Q290 46 300 26 Q310 46 320 26 Q330 46 340 26 Q350 46 360 26 Q370 46 380 26 Q390 46 400 26" />
<path d="M0 26 Q10 46 20 26 Q30 46 40 26 Q50 46 60 26 Q70 46 80 26 Q90 46 100 26 Q110 46 120 26 Q130 46 140 26 Q150 46 160 26 Q170 46 180 26 Q190 46 200 26 Q210 46 220 26 Q230 46 240 26 Q250 46 260 26 Q270 46 280 26 Q290 46 300 26 Q310 46 320 26 Q330 46 340 26 Q350 46 360 26 Q370 46 380 26 Q390 46 400 26" />
<path d="M0 26 Q10 46 20 26 Q30 46 40 26 Q50 46 60 26 Q70 46 80 26 Q90 46 100 26 Q110 46 120 26 Q130 46 140 26 Q150 46 160 26 Q170 46 180 26 Q190 46 200 26 Q210 46 220 26 Q230 46 240 26 Q250 46 260 26 Q270 46 280 26 Q290 46 300 26 Q310 46 320 26 Q330 46 340 26 Q350 46 360 26 Q370 46 380 26 Q390 46 400 26" />
<path d="M0 26 Q10 46 20 26 Q30 46 40 26 Q50 46 60 26 Q70 46 80 26 Q90 46 100 26 Q110 46 120 26 Q130 46 140 26 Q150 46 160 26 Q170 46 180 26 Q190 46 200 26 Q210 46 220 26 Q230 46 240 26 Q250 46 260 26 Q270 46 280 26 Q290 46 300 26 Q310 46 320 26 Q330 46 340 26 Q350 46 360 26 Q370 46 380 26 Q390 46 400 26" />
<path d="M0 26 Q10 46 20 26 Q30 46 40 26 Q50 46 60 26 Q70 46 80 26 Q90 46 100 26 Q110 46 120 26 Q130 46 140 26 Q150 46 160 26 Q170 46 180 26 Q190 46 200 26 Q210 46 220 26 Q230 46 240 26 Q250 46 260 26 Q270 46 280 26 Q290 46 300 26 Q310 46 320 26 Q330 46 340 26 Q350 46 360 26 Q370 46 380 26 Q390 46 400 26" />
<path d="M0 26 Q10 46 20 26 Q30 46 40 26 Q50 46 60 26 Q70 46 80 26 Q90 46 100 26 Q110 46 120 26 Q130 46 140 26 Q150 46 160 26 Q170 46 180 26 Q190 46 200 26 Q210 46 220 26 Q230 46 240 26 Q250 46 260 26 Q270 46 280 26 Q290 46 300 26 Q310 46 320 26 Q330 46 340 26 Q350 46 360 26 Q370 46 380 26 Q390 46 400 26" />
<path d="M0 26 Q10 46 20 26 Q30 46 40 26 Q50 46 60 26 Q70 46 80 26 Q90 46 100 26 Q110 46 120 26 Q130 46 140 26 Q150 46 160 26 Q170 46 180 26 Q190 46 200 26 Q210 46 220 26 Q230 46 240 26 Q250 46 260 26 Q270 46 280 26 Q290 46 300 26 Q310 46 320 26 Q330 46 340 26 Q350 46 360 26 Q370 46 380 26 Q390 46 400 26" />
<path d="M0 26 Q10 46 20 26 Q30 46 40 26 Q50 46 60 26 Q70 46 80 26 Q90 46 100 26 Q110 46 120 26 Q130 46 140 26 Q150 46 160 26 Q170 46 180 26 Q190 46 200 26 Q210 46 220 26 Q230 46 240 26 Q250 46 260 26 Q270 46 280 26 Q290 46 300 26 Q310 46 320 26 Q330 46 340 26 Q350 46 360 26 Q370 46 380 26 Q390 46 400 26" />
<path d="M0 26 Q10 46 20 26 Q30 46 40 26 Q50 46 60 26 Q70 46 80 26 Q90 46 100 26 Q110 46 120 26 Q130 46 140 26 Q150 46 160 26 Q170 46 180 26 Q190 46 200 26 Q210 46 220 26 Q230 46 240 26 Q250 46 260 26 Q270 46 280 26 Q290 46 300 26 Q310 46 320 26 Q330 46 340 26 Q350 46 360 26 Q370 46 380 26 Q390 46 400 26" />
<path d="M0 26 Q10 46 20 26 Q30 46 40 26 Q50 46 60 26 Q70 46 80 26 Q90 46 100 26 Q110 46 120 26 Q130 46 140 26 Q150 46 160 26 Q170 46 180 26 Q190 46 200 26 Q210 46 220 26 Q230 46 240 26 Q250 46 260 26 Q270 46 280 26 Q290 46 300 26 Q310 46 320 26 Q330 46 340 26 Q350 46 360 26 Q370 46 380 26 Q390 46 400 26" />
<path d="M0 26 Q10 46 20 26 Q30 46 40 26 Q50 46 60 26 Q70 46 80 26 Q90 46 100 26 Q110 46 120 26 Q130 46 140 26 Q150 46 160 26 Q170 46 180 26 Q190 46 200 26 Q210 46 220 26 Q230 46 240 26 Q250 46 260 26 Q270 46 280 26 Q290 46 300 26 Q310 46 320 26 Q330 46 340 26 Q350 46 360 26 Q370 46 380 26 Q390 46 400 26" />
<path d="M0 26 Q10 46 20 26 Q30 46 40 26 Q50 46 60 26 Q70 46 80 26 Q90 46 100 26 Q110 46 120 26 Q130 46 140 26 Q150 46 160 26 Q170 46 180 26 Q190 46 200 26 Q210 46 220 26 Q230 46 240 26 Q250 46 260 26 Q270 46 280 26 Q290 46 300 26 Q310 46 320 26 Q330 46 340 26 Q350 46 360 26 Q370 46 380 26 Q390 46 400 26" />
<path d="M0 26 Q10 46 20 26 Q30 46 40 26 Q50 46 60 26 Q70 46 80 26 Q90 46 100 26 Q110 46 120 26 Q130 46 140 26 Q150 46 160 26 Q170 46 180 26 Q190 46 200 26 Q210 46 220 26 Q230 46 240 26 Q250 46 260 26 Q270 46 280 26 Q290 46 300 26 Q310 46 320 26 Q330 46 340 26 Q350 46 360 26 Q370 46 380 26 Q390 46 400 26" />
<path d="M0 26 Q10 46 20 26 Q30 46 40 26 Q50 46 60 26 Q70 46 80 26 Q90 46 100 26 Q110 46 120 26 Q130 46 140 26 Q150 46 160 26 Q170 46 180 26 Q190 46 200 26 Q210 46 220 26 Q230 46 240 26 Q250 46 260 26 Q270 46 280 26 Q290 46 300 26 Q310 46 320 26 Q330 46 340 26 Q350 46 360 26 Q370 46 380 26 Q390 46 400 26" />

<path d="M0 402 Q10 422 20 402 Q30 422 40 402 Q50 422 60 402 Q70 422 80 402 Q90 422 100 402 Q110 422 120 402 Q130 422 140 402 Q150 422 160 402 Q170 422 180 402 Q190 422 200 402 Q210 422 220 402 Q230 422 240 402 Q250 422 260 402 Q270 422 280 402 Q290 422 300 402 Q310 422 320 402 Q330 422 340 402 Q350 422 360 402 Q370 422 380 402 Q390 422 400 402" />
<path d="M0 402 Q10 422 20 402 Q30 422 40 402 Q50 422 60 402 Q70 422 80 402 Q90 422 100 402 Q110 422 120 402 Q130 422 140 402 Q150 422 160 402 Q170 422 180 402 Q190 422 200 402 Q210 422 220 402 Q230 422 240 402 Q250 422 260 402 Q270 422 280 402 Q290 422 300 402 Q310 422 320 402 Q330 422 340 402 Q350 422 360 402 Q370 422 380 402 Q390 422 400 402" />
<path d="M0 402 Q10 422 20 402 Q30 422 40 402 Q50 422 60 402 Q70 422 80 402 Q90 422 100 402 Q110 422 120 402 Q130 422 140 402 Q150 422 160 402 Q170 422 180 402 Q190 422 200 402 Q210 422 220 402 Q230 422 240 402 Q250 422 260 402 Q270 422 280 402 Q290 422 300 402 Q310 422 320 402 Q330 422 340 402 Q350 422 360 402 Q370 422 380 402 Q390 422 400 402" />
<path d="M0 402 Q10 422 20 402 Q30 422 40 402 Q50 422 60 402 Q70 422 80 402 Q90 422 100 402 Q110 422 120 402 Q130 422 140 402 Q150 422 160 402 Q170 422 180 402 Q190 422 200 402 Q210 422 220 402 Q230 422 240 402 Q250 422 260 402 Q270 422 280 402 Q290 422 300 402 Q310 422 320 402 Q330 422 340 402 Q350 422 360 402 Q370 422 380 402 Q390 422 400 402" />
<path d="M0 402 Q10 422 20 402 Q30 422 40 402 Q50 422 60 402 Q70 422 80 402 Q90 422 100 402 Q110 422 120 402 Q130 422 140 402 Q150 422 160 402 Q170 422 180 402 Q190 422 200 402 Q210 422 220 402 Q230 422 240 402 Q250 422 260 402 Q270 422 280 402 Q290 422 300 402 Q310 422 320 402 Q330 422 340 402 Q350 422 360 402 Q370 422 380 402 Q390 422 400 402" />

  </g>
</svg>
