<svg xmlns="http://www.w3.org/2000/svg" preserveAspectRatio="none" viewBox="0 0 400 410"><defs><linearGradient id="a" x1="0" x2="0" y1="0" y2="1"><stop offset="0%" stop-color="#d7d7d7" stop-opacity=".1"/><stop offset="100%" stop-color="#b0b0b0" stop-opacity=".4"/></linearGradient></defs><rect width="100%" height="100%" fill="#fff8f0"/><g fill="none" stroke="url(#a)"><path d="M0 10q10 20 20 0 10 20 20 0 10 20 20 0 10 20 20 0 10 20 20 0 10 20 20 0 10 20 20 0 10 20 20 0 10 20 20 0 10 20 20 0 10 20 20 0 10 20 20 0 10 20 20 0 10 20 20 0 10 20 20 0 10 20 20 0 10 20 20 0 10 20 20 0 10 20 20 0 10 20 20 0"/><path d="M0 18q10 20 20 0 10 20 20 0 10 20 20 0 10 20 20 0 10 20 20 0 10 20 20 0 10 20 20 0 10 20 20 0 10 20 20 0 10 20 20 0 10 20 20 0 10 20 20 0 10 20 20 0 10 20 20 0 10 20 20 0 10 20 20 0 10 20 20 0 10 20 20 0 10 20 20 0 10 20 20 0"/><path d="M0 26q10 20 20 0 10 20 20 0 10 20 20 0 10 20 20 0 10 20 20 0 10 20 20 0 10 20 20 0 10 20 20 0 10 20 20 0 10 20 20 0 10 20 20 0 10 20 20 0 10 20 20 0 10 20 20 0 10 20 20 0 10 20 20 0 10 20 20 0 10 20 20 0 10 20 20 0 10 20 20 0"/><path d="M0 26q10 20 20 0 10 20 20 0 10 20 20 0 10 20 20 0 10 20 20 0 10 20 20 0 10 20 20 0 10 20 20 0 10 20 20 0 10 20 20 0 10 20 20 0 10 20 20 0 10 20 20 0 10 20 20 0 10 20 20 0 10 20 20 0 10 20 20 0 10 20 20 0 10 20 20 0 10 20 20 0"/><path d="M0 26q10 20 20 0 10 20 20 0 10 20 20 0 10 20 20 0 10 20 20 0 10 20 20 0 10 20 20 0 10 20 20 0 10 20 20 0 10 20 20 0 10 20 20 0 10 20 20 0 10 20 20 0 10 20 20 0 10 20 20 0 10 20 20 0 10 20 20 0 10 20 20 0 10 20 20 0 10 20 20 0"/><path d="M0 26q10 20 20 0 10 20 20 0 10 20 20 0 10 20 20 0 10 20 20 0 10 20 20 0 10 20 20 0 10 20 20 0 10 20 20 0 10 20 20 0 10 20 20 0 10 20 20 0 10 20 20 0 10 20 20 0 10 20 20 0 10 20 20 0 10 20 20 0 10 20 20 0 10 20 20 0 10 20 20 0"/><path d="M0 26q10 20 20 0 10 20 20 0 10 20 20 0 10 20 20 0 10 20 20 0 10 20 20 0 10 20 20 0 10 20 20 0 10 20 20 0 10 20 20 0 10 20 20 0 10 20 20 0 10 20 20 0 10 20 20 0 10 20 20 0 10 20 20 0 10 20 20 0 10 20 20 0 10 20 20 0 10 20 20 0"/><path d="M0 26q10 20 20 0 10 20 20 0 10 20 20 0 10 20 20 0 10 20 20 0 10 20 20 0 10 20 20 0 10 20 20 0 10 20 20 0 10 20 20 0 10 20 20 0 10 20 20 0 10 20 20 0 10 20 20 0 10 20 20 0 10 20 20 0 10 20 20 0 10 20 20 0 10 20 20 0 10 20 20 0"/><path d="M0 26q10 20 20 0 10 20 20 0 10 20 20 0 10 20 20 0 10 20 20 0 10 20 20 0 10 20 20 0 10 20 20 0 10 20 20 0 10 20 20 0 10 20 20 0 10 20 20 0 10 20 20 0 10 20 20 0 10 20 20 0 10 20 20 0 10 20 20 0 10 20 20 0 10 20 20 0 10 20 20 0"/><path d="M0 26q10 20 20 0 10 20 20 0 10 20 20 0 10 20 20 0 10 20 20 0 10 20 20 0 10 20 20 0 10 20 20 0 10 20 20 0 10 20 20 0 10 20 20 0 10 20 20 0 10 20 20 0 10 20 20 0 10 20 20 0 10 20 20 0 10 20 20 0 10 20 20 0 10 20 20 0 10 20 20 0"/><path d="M0 26q10 20 20 0 10 20 20 0 10 20 20 0 10 20 20 0 10 20 20 0 10 20 20 0 10 20 20 0 10 20 20 0 10 20 20 0 10 20 20 0 10 20 20 0 10 20 20 0 10 20 20 0 10 20 20 0 10 20 20 0 10 20 20 0 10 20 20 0 10 20 20 0 10 20 20 0 10 20 20 0"/><path d="M0 26q10 20 20 0 10 20 20 0 10 20 20 0 10 20 20 0 10 20 20 0 10 20 20 0 10 20 20 0 10 20 20 0 10 20 20 0 10 20 20 0 10 20 20 0 10 20 20 0 10 20 20 0 10 20 20 0 10 20 20 0 10 20 20 0 10 20 20 0 10 20 20 0 10 20 20 0 10 20 20 0"/><path d="M0 26q10 20 20 0 10 20 20 0 10 20 20 0 10 20 20 0 10 20 20 0 10 20 20 0 10 20 20 0 10 20 20 0 10 20 20 0 10 20 20 0 10 20 20 0 10 20 20 0 10 20 20 0 10 20 20 0 10 20 20 0 10 20 20 0 10 20 20 0 10 20 20 0 10 20 20 0 10 20 20 0"/><path d="M0 26q10 20 20 0 10 20 20 0 10 20 20 0 10 20 20 0 10 20 20 0 10 20 20 0 10 20 20 0 10 20 20 0 10 20 20 0 10 20 20 0 10 20 20 0 10 20 20 0 10 20 20 0 10 20 20 0 10 20 20 0 10 20 20 0 10 20 20 0 10 20 20 0 10 20 20 0 10 20 20 0"/><path d="M0 26q10 20 20 0 10 20 20 0 10 20 20 0 10 20 20 0 10 20 20 0 10 20 20 0 10 20 20 0 10 20 20 0 10 20 20 0 10 20 20 0 10 20 20 0 10 20 20 0 10 20 20 0 10 20 20 0 10 20 20 0 10 20 20 0 10 20 20 0 10 20 20 0 10 20 20 0 10 20 20 0"/><path d="M0 26q10 20 20 0 10 20 20 0 10 20 20 0 10 20 20 0 10 20 20 0 10 20 20 0 10 20 20 0 10 20 20 0 10 20 20 0 10 20 20 0 10 20 20 0 10 20 20 0 10 20 20 0 10 20 20 0 10 20 20 0 10 20 20 0 10 20 20 0 10 20 20 0 10 20 20 0 10 20 20 0"/><path d="M0 26q10 20 20 0 10 20 20 0 10 20 20 0 10 20 20 0 10 20 20 0 10 20 20 0 10 20 20 0 10 20 20 0 10 20 20 0 10 20 20 0 10 20 20 0 10 20 20 0 10 20 20 0 10 20 20 0 10 20 20 0 10 20 20 0 10 20 20 0 10 20 20 0 10 20 20 0 10 20 20 0"/><path d="M0 26q10 20 20 0 10 20 20 0 10 20 20 0 10 20 20 0 10 20 20 0 10 20 20 0 10 20 20 0 10 20 20 0 10 20 20 0 10 20 20 0 10 20 20 0 10 20 20 0 10 20 20 0 10 20 20 0 10 20 20 0 10 20 20 0 10 20 20 0 10 20 20 0 10 20 20 0 10 20 20 0"/><path d="M0 26q10 20 20 0 10 20 20 0 10 20 20 0 10 20 20 0 10 20 20 0 10 20 20 0 10 20 20 0 10 20 20 0 10 20 20 0 10 20 20 0 10 20 20 0 10 20 20 0 10 20 20 0 10 20 20 0 10 20 20 0 10 20 20 0 10 20 20 0 10 20 20 0 10 20 20 0 10 20 20 0"/><path d="M0 26q10 20 20 0 10 20 20 0 10 20 20 0 10 20 20 0 10 20 20 0 10 20 20 0 10 20 20 0 10 20 20 0 10 20 20 0 10 20 20 0 10 20 20 0 10 20 20 0 10 20 20 0 10 20 20 0 10 20 20 0 10 20 20 0 10 20 20 0 10 20 20 0 10 20 20 0 10 20 20 0"/><path d="M0 26q10 20 20 0 10 20 20 0 10 20 20 0 10 20 20 0 10 20 20 0 10 20 20 0 10 20 20 0 10 20 20 0 10 20 20 0 10 20 20 0 10 20 20 0 10 20 20 0 10 20 20 0 10 20 20 0 10 20 20 0 10 20 20 0 10 20 20 0 10 20 20 0 10 20 20 0 10 20 20 0"/><path d="M0 26q10 20 20 0 10 20 20 0 10 20 20 0 10 20 20 0 10 20 20 0 10 20 20 0 10 20 20 0 10 20 20 0 10 20 20 0 10 20 20 0 10 20 20 0 10 20 20 0 10 20 20 0 10 20 20 0 10 20 20 0 10 20 20 0 10 20 20 0 10 20 20 0 10 20 20 0 10 20 20 0"/><path d="M0 26q10 20 20 0 10 20 20 0 10 20 20 0 10 20 20 0 10 20 20 0 10 20 20 0 10 20 20 0 10 20 20 0 10 20 20 0 10 20 20 0 10 20 20 0 10 20 20 0 10 20 20 0 10 20 20 0 10 20 20 0 10 20 20 0 10 20 20 0 10 20 20 0 10 20 20 0 10 20 20 0"/><path d="M0 26q10 20 20 0 10 20 20 0 10 20 20 0 10 20 20 0 10 20 20 0 10 20 20 0 10 20 20 0 10 20 20 0 10 20 20 0 10 20 20 0 10 20 20 0 10 20 20 0 10 20 20 0 10 20 20 0 10 20 20 0 10 20 20 0 10 20 20 0 10 20 20 0 10 20 20 0 10 20 20 0"/><path d="M0 26q10 20 20 0 10 20 20 0 10 20 20 0 10 20 20 0 10 20 20 0 10 20 20 0 10 20 20 0 10 20 20 0 10 20 20 0 10 20 20 0 10 20 20 0 10 20 20 0 10 20 20 0 10 20 20 0 10 20 20 0 10 20 20 0 10 20 20 0 10 20 20 0 10 20 20 0 10 20 20 0"/><path d="M0 26q10 20 20 0 10 20 20 0 10 20 20 0 10 20 20 0 10 20 20 0 10 20 20 0 10 20 20 0 10 20 20 0 10 20 20 0 10 20 20 0 10 20 20 0 10 20 20 0 10 20 20 0 10 20 20 0 10 20 20 0 10 20 20 0 10 20 20 0 10 20 20 0 10 20 20 0 10 20 20 0"/><path d="M0 26q10 20 20 0 10 20 20 0 10 20 20 0 10 20 20 0 10 20 20 0 10 20 20 0 10 20 20 0 10 20 20 0 10 20 20 0 10 20 20 0 10 20 20 0 10 20 20 0 10 20 20 0 10 20 20 0 10 20 20 0 10 20 20 0 10 20 20 0 10 20 20 0 10 20 20 0 10 20 20 0"/><path d="M0 26q10 20 20 0 10 20 20 0 10 20 20 0 10 20 20 0 10 20 20 0 10 20 20 0 10 20 20 0 10 20 20 0 10 20 20 0 10 20 20 0 10 20 20 0 10 20 20 0 10 20 20 0 10 20 20 0 10 20 20 0 10 20 20 0 10 20 20 0 10 20 20 0 10 20 20 0 10 20 20 0"/><path d="M0 26q10 20 20 0 10 20 20 0 10 20 20 0 10 20 20 0 10 20 20 0 10 20 20 0 10 20 20 0 10 20 20 0 10 20 20 0 10 20 20 0 10 20 20 0 10 20 20 0 10 20 20 0 10 20 20 0 10 20 20 0 10 20 20 0 10 20 20 0 10 20 20 0 10 20 20 0 10 20 20 0"/><path d="M0 26q10 20 20 0 10 20 20 0 10 20 20 0 10 20 20 0 10 20 20 0 10 20 20 0 10 20 20 0 10 20 20 0 10 20 20 0 10 20 20 0 10 20 20 0 10 20 20 0 10 20 20 0 10 20 20 0 10 20 20 0 10 20 20 0 10 20 20 0 10 20 20 0 10 20 20 0 10 20 20 0"/><path d="M0 26q10 20 20 0 10 20 20 0 10 20 20 0 10 20 20 0 10 20 20 0 10 20 20 0 10 20 20 0 10 20 20 0 10 20 20 0 10 20 20 0 10 20 20 0 10 20 20 0 10 20 20 0 10 20 20 0 10 20 20 0 10 20 20 0 10 20 20 0 10 20 20 0 10 20 20 0 10 20 20 0"/><path d="M0 26q10 20 20 0 10 20 20 0 10 20 20 0 10 20 20 0 10 20 20 0 10 20 20 0 10 20 20 0 10 20 20 0 10 20 20 0 10 20 20 0 10 20 20 0 10 20 20 0 10 20 20 0 10 20 20 0 10 20 20 0 10 20 20 0 10 20 20 0 10 20 20 0 10 20 20 0 10 20 20 0"/><path d="M0 26q10 20 20 0 10 20 20 0 10 20 20 0 10 20 20 0 10 20 20 0 10 20 20 0 10 20 20 0 10 20 20 0 10 20 20 0 10 20 20 0 10 20 20 0 10 20 20 0 10 20 20 0 10 20 20 0 10 20 20 0 10 20 20 0 10 20 20 0 10 20 20 0 10 20 20 0 10 20 20 0"/><path d="M0 26q10 20 20 0 10 20 20 0 10 20 20 0 10 20 20 0 10 20 20 0 10 20 20 0 10 20 20 0 10 20 20 0 10 20 20 0 10 20 20 0 10 20 20 0 10 20 20 0 10 20 20 0 10 20 20 0 10 20 20 0 10 20 20 0 10 20 20 0 10 20 20 0 10 20 20 0 10 20 20 0"/><path d="M0 26q10 20 20 0 10 20 20 0 10 20 20 0 10 20 20 0 10 20 20 0 10 20 20 0 10 20 20 0 10 20 20 0 10 20 20 0 10 20 20 0 10 20 20 0 10 20 20 0 10 20 20 0 10 20 20 0 10 20 20 0 10 20 20 0 10 20 20 0 10 20 20 0 10 20 20 0 10 20 20 0M0 402q10 20 20 0 10 20 20 0 10 20 20 0 10 20 20 0 10 20 20 0 10 20 20 0 10 20 20 0 10 20 20 0 10 20 20 0 10 20 20 0 10 20 20 0 10 20 20 0 10 20 20 0 10 20 20 0 10 20 20 0 10 20 20 0 10 20 20 0 10 20 20 0 10 20 20 0 10 20 20 0"/><path d="M0 402q10 20 20 0 10 20 20 0 10 20 20 0 10 20 20 0 10 20 20 0 10 20 20 0 10 20 20 0 10 20 20 0 10 20 20 0 10 20 20 0 10 20 20 0 10 20 20 0 10 20 20 0 10 20 20 0 10 20 20 0 10 20 20 0 10 20 20 0 10 20 20 0 10 20 20 0 10 20 20 0"/><path d="M0 402q10 20 20 0 10 20 20 0 10 20 20 0 10 20 20 0 10 20 20 0 10 20 20 0 10 20 20 0 10 20 20 0 10 20 20 0 10 20 20 0 10 20 20 0 10 20 20 0 10 20 20 0 10 20 20 0 10 20 20 0 10 20 20 0 10 20 20 0 10 20 20 0 10 20 20 0 10 20 20 0"/><path d="M0 402q10 20 20 0 10 20 20 0 10 20 20 0 10 20 20 0 10 20 20 0 10 20 20 0 10 20 20 0 10 20 20 0 10 20 20 0 10 20 20 0 10 20 20 0 10 20 20 0 10 20 20 0 10 20 20 0 10 20 20 0 10 20 20 0 10 20 20 0 10 20 20 0 10 20 20 0 10 20 20 0"/><path d="M0 402q10 20 20 0 10 20 20 0 10 20 20 0 10 20 20 0 10 20 20 0 10 20 20 0 10 20 20 0 10 20 20 0 10 20 20 0 10 20 20 0 10 20 20 0 10 20 20 0 10 20 20 0 10 20 20 0 10 20 20 0 10 20 20 0 10 20 20 0 10 20 20 0 10 20 20 0 10 20 20 0"/></g></svg>